<svg xmlns="http://www.w3.org/2000/svg" xmlns:xlink="http://www.w3.org/1999/xlink" preserveAspectRatio="xMidYMid" width="52" height="52" viewBox="0 0 52 52">
  <defs>
    <style>
      .cls-1 {
        fill: #142950;
        fill-rule: evenodd;
      }
    </style>
  </defs>
  <path d="M25.999,52.000 C11.641,52.000 0.000,40.358 0.000,26.000 C0.000,11.642 11.642,0.000 25.999,0.000 C40.359,0.000 52.000,11.642 52.000,26.000 C52.000,40.358 40.359,52.000 25.999,52.000 ZM26.000,1.000 C12.269,1.000 1.000,12.269 1.000,26.000 C1.000,39.731 12.269,51.000 26.000,51.000 C39.731,51.000 51.000,39.731 51.000,26.000 C51.000,12.269 39.731,1.000 26.000,1.000 ZM27.000,37.000 L24.000,37.000 L24.000,33.000 L17.000,33.000 L17.000,30.000 L24.000,30.000 L24.000,27.000 L17.000,27.000 L17.000,24.000 L24.000,24.000 L24.000,23.000 L17.000,17.000 L19.000,15.567 L25.000,20.000 L26.000,20.000 L31.733,15.567 L34.000,17.000 L27.000,23.000 L27.000,24.000 L34.000,24.000 L34.000,27.000 L27.000,27.000 L27.000,30.000 L34.000,30.000 L34.000,33.000 L27.000,33.000 L27.000,37.000 Z" class="cls-1"/>
</svg>
