<svg xmlns="http://www.w3.org/2000/svg" xmlns:xlink="http://www.w3.org/1999/xlink" preserveAspectRatio="xMidYMid" width="52" height="52" viewBox="0 0 52 52">
  <defs>
    <style>
      .cls-1 {
        fill: #152950;
        fill-rule: evenodd;
      }
    </style>
  </defs>
  <path d="M26.050,52.000 C11.719,52.000 0.102,40.358 0.102,26.000 C0.102,11.642 11.721,0.000 26.050,0.000 C40.382,0.000 52.000,11.642 52.000,26.000 C52.000,40.358 40.382,52.000 26.050,52.000 ZM26.051,1.000 C12.347,1.000 1.100,12.269 1.100,26.000 C1.100,39.731 12.347,51.000 26.051,51.000 C39.755,51.000 51.002,39.731 51.002,26.000 C51.002,12.269 39.755,1.000 26.051,1.000 ZM39.360,26.358 C39.193,26.358 39.026,26.293 38.899,26.164 L36.281,23.492 L36.281,36.871 L36.223,36.871 L36.223,37.000 L15.089,37.000 L15.089,23.230 L12.189,26.166 C11.935,26.423 11.524,26.423 11.270,26.166 C11.016,25.908 11.016,25.492 11.270,25.235 L25.139,11.195 C25.261,11.071 25.448,10.986 25.600,11.002 C25.773,11.003 25.938,11.072 26.060,11.197 L39.821,25.237 C40.073,25.494 40.072,25.911 39.818,26.168 C39.691,26.295 39.525,26.358 39.360,26.358 ZM29.045,26.000 L22.059,26.000 L22.059,35.000 L29.045,35.000 L29.045,26.000 Z" class="cls-1"/>
</svg>
