<svg xmlns="http://www.w3.org/2000/svg" xmlns:xlink="http://www.w3.org/1999/xlink" preserveAspectRatio="xMidYMid" width="52" height="52" viewBox="0 0 52 52">
  <defs>
    <style>
      .cls-1 {
        fill: #152950;
        fill-rule: evenodd;
      }
    </style>
  </defs>
  <path d="M25.946,52.000 C11.616,52.000 -0.002,40.358 -0.002,26.000 C-0.002,11.642 11.617,0.000 25.946,0.000 C40.279,0.000 51.896,11.642 51.896,26.000 C51.896,40.358 40.279,52.000 25.946,52.000 ZM25.947,1.000 C12.243,1.000 0.996,12.269 0.996,26.000 C0.996,39.731 12.243,51.000 25.947,51.000 C39.651,51.000 50.898,39.731 50.898,26.000 C50.898,12.269 39.651,1.000 25.947,1.000 ZM38.278,16.892 L35.944,18.260 L35.944,29.359 L35.944,29.886 C35.944,30.614 35.354,31.204 34.626,31.204 L34.099,31.204 L18.292,31.204 C17.208,31.204 16.960,30.405 16.880,30.107 L13.971,19.308 L32.684,19.308 L32.684,16.654 L36.733,14.175 C37.348,13.814 38.136,14.029 38.492,14.654 L38.749,15.106 C39.105,15.732 38.894,16.531 38.278,16.892 ZM20.663,32.785 C21.827,32.785 22.771,33.728 22.771,34.892 C22.771,36.056 21.827,37.000 20.663,37.000 C19.499,37.000 18.556,36.056 18.556,34.892 C18.556,33.728 19.499,32.785 20.663,32.785 ZM31.728,32.785 C32.892,32.785 33.836,33.728 33.836,34.892 C33.836,36.056 32.892,37.000 31.728,37.000 C30.564,37.000 29.621,36.056 29.621,34.892 C29.621,33.728 30.564,32.785 31.728,32.785 Z" class="cls-1"/>
</svg>
