<svg xmlns="http://www.w3.org/2000/svg" xmlns:xlink="http://www.w3.org/1999/xlink" preserveAspectRatio="xMidYMid" width="52" height="52" viewBox="0 0 52 52">
  <defs>
    <style>
      .cls-1 {
        fill: #142950;
        fill-rule: evenodd;
      }
    </style>
  </defs>
  <path d="M25.999,52.000 C11.641,52.000 0.000,40.358 0.000,26.000 C0.000,11.642 11.642,0.000 25.999,0.000 C40.359,0.000 52.000,11.642 52.000,26.000 C52.000,40.358 40.359,52.000 25.999,52.000 ZM26.000,1.000 C12.269,1.000 1.000,12.269 1.000,26.000 C1.000,39.731 12.269,51.000 26.000,51.000 C39.731,51.000 51.000,39.731 51.000,26.000 C51.000,12.269 39.731,1.000 26.000,1.000 ZM26.675,38.978 C26.622,38.993 26.567,39.000 26.512,39.000 C26.459,39.000 26.407,38.994 26.356,38.980 C24.902,38.604 17.760,33.462 17.760,33.462 C17.760,33.462 15.053,22.514 15.000,19.823 C14.986,19.081 15.415,18.374 16.066,18.064 C19.170,16.586 24.865,15.007 26.522,15.000 C28.182,15.006 33.852,16.578 36.941,18.051 C37.518,18.326 38.013,19.143 38.000,19.801 C37.946,22.511 35.240,33.462 35.240,33.462 C35.240,33.462 28.339,38.527 26.675,38.978 ZM26.500,19.940 C25.706,19.940 25.062,20.597 25.062,21.407 C25.062,22.216 25.706,22.873 26.500,22.873 C27.294,22.873 27.937,22.216 27.937,21.407 C27.937,20.597 27.294,19.940 26.500,19.940 ZM28.000,25.000 L25.000,25.000 L25.000,32.000 L28.000,32.000 L28.000,25.000 Z" class="cls-1"/>
</svg>
