<svg xmlns="http://www.w3.org/2000/svg" xmlns:xlink="http://www.w3.org/1999/xlink" preserveAspectRatio="xMidYMid" width="52" height="52" viewBox="0 0 52 52">
  <defs>
    <style>
      .cls-1 {
        fill: #152950;
        fill-rule: evenodd;
      }
    </style>
  </defs>
  <path d="M25.948,52.000 C11.618,52.000 0.000,40.358 0.000,26.000 C0.000,11.642 11.619,0.000 25.948,0.000 C40.281,0.000 51.898,11.642 51.898,26.000 C51.898,40.358 40.281,52.000 25.948,52.000 ZM25.949,1.000 C12.245,1.000 0.998,12.269 0.998,26.000 C0.998,39.731 12.245,51.000 25.949,51.000 C39.653,51.000 50.900,39.731 50.900,26.000 C50.900,12.269 39.653,1.000 25.949,1.000 ZM15.969,32.000 L35.930,32.000 L35.930,36.000 L15.969,36.000 L15.969,32.000 ZM15.969,24.000 L35.930,24.000 L35.930,28.000 L15.969,28.000 L15.969,24.000 ZM15.969,16.000 L35.930,16.000 L35.930,20.000 L15.969,20.000 L15.969,16.000 Z" class="cls-1"/>
</svg>
